<svg width="824" height="427" viewBox="0 0 824 427" fill="none" xmlns="http://www.w3.org/2000/svg">
<rect width="824" height="427" rx="18" fill="#AB8602"/>
<path d="M24.5369 49H21.767L29.7784 27.1818H32.5057L40.517 49H37.7472L31.2273 30.6335H31.0568L24.5369 49ZM25.5597 40.4773H36.7244V42.821H25.5597V40.4773ZM46.0888 39.1562V49H43.5746V32.6364H46.0036V35.1932H46.2166C46.6001 34.3622 47.1825 33.6946 47.9638 33.1903C48.745 32.679 49.7536 32.4233 50.9893 32.4233C52.0973 32.4233 53.0668 32.6506 53.8977 33.1051C54.7287 33.5526 55.375 34.2344 55.8366 35.1506C56.2983 36.0597 56.5291 37.2102 56.5291 38.6023V49H54.0149V38.7727C54.0149 37.4872 53.6811 36.4858 53.0135 35.7685C52.3459 35.044 51.4297 34.6818 50.2649 34.6818C49.4624 34.6818 48.745 34.8558 48.1129 35.2038C47.4879 35.5518 46.9943 36.0597 46.6321 36.7273C46.2699 37.3949 46.0888 38.2045 46.0888 39.1562ZM67.7711 49.3409C66.2939 49.3409 64.9977 48.9893 63.8826 48.2862C62.7747 47.5831 61.9082 46.5994 61.2832 45.3352C60.6653 44.071 60.3564 42.5937 60.3564 40.9034C60.3564 39.1989 60.6653 37.7109 61.2832 36.4396C61.9082 35.1683 62.7747 34.1811 63.8826 33.478C64.9977 32.7749 66.2939 32.4233 67.7711 32.4233C69.2484 32.4233 70.541 32.7749 71.649 33.478C72.764 34.1811 73.6305 35.1683 74.2484 36.4396C74.8734 37.7109 75.1859 39.1989 75.1859 40.9034C75.1859 42.5937 74.8734 44.071 74.2484 45.3352C73.6305 46.5994 72.764 47.5831 71.649 48.2862C70.541 48.9893 69.2484 49.3409 67.7711 49.3409ZM67.7711 47.0824C68.8933 47.0824 69.8166 46.7947 70.541 46.2195C71.2654 45.6442 71.8017 44.8878 72.1497 43.9503C72.4977 43.0128 72.6717 41.9972 72.6717 40.9034C72.6717 39.8097 72.4977 38.7905 72.1497 37.8459C71.8017 36.9013 71.2654 36.1378 70.541 35.5554C69.8166 34.973 68.8933 34.6818 67.7711 34.6818C66.649 34.6818 65.7257 34.973 65.0012 35.5554C64.2768 36.1378 63.7406 36.9013 63.3926 37.8459C63.0446 38.7905 62.8706 39.8097 62.8706 40.9034C62.8706 41.9972 63.0446 43.0128 63.3926 43.9503C63.7406 44.8878 64.2768 45.6442 65.0012 46.2195C65.7257 46.7947 66.649 47.0824 67.7711 47.0824ZM86.1403 32.6364V34.767H77.6602V32.6364H86.1403ZM80.1317 28.7159H82.646V44.3125C82.646 45.0227 82.7489 45.5554 82.9549 45.9105C83.168 46.2585 83.4379 46.4929 83.7646 46.6136C84.0984 46.7273 84.4499 46.7841 84.8192 46.7841C85.0962 46.7841 85.3235 46.7699 85.5011 46.7415C85.6786 46.706 85.8207 46.6776 85.9272 46.6562L86.4386 48.9148C86.2681 48.9787 86.0302 49.0426 85.7248 49.1065C85.4194 49.1776 85.0323 49.2131 84.5636 49.2131C83.8533 49.2131 83.1573 49.0604 82.4755 48.755C81.8008 48.4496 81.2397 47.9844 80.7923 47.3594C80.3519 46.7344 80.1317 45.946 80.1317 44.9943V28.7159ZM94.7376 49.3835C93.7006 49.3835 92.7596 49.1882 91.9144 48.7976C91.0692 48.3999 90.3981 47.8281 89.9009 47.0824C89.4038 46.3295 89.1552 45.4205 89.1552 44.3551C89.1552 43.4176 89.3398 42.6577 89.7092 42.0753C90.0785 41.4858 90.5721 41.0241 91.19 40.6903C91.8079 40.3565 92.4897 40.108 93.2354 39.9446C93.9883 39.7741 94.7447 39.6392 95.5046 39.5398C96.4989 39.4119 97.305 39.3161 97.9229 39.2521C98.5479 39.1811 99.0025 39.0639 99.2866 38.9006C99.5778 38.7372 99.7234 38.4531 99.7234 38.0483V37.9631C99.7234 36.9119 99.4357 36.0952 98.8604 35.5128C98.2923 34.9304 97.4293 34.6392 96.2717 34.6392C95.0714 34.6392 94.1303 34.902 93.4485 35.4276C92.7667 35.9531 92.2873 36.5142 92.0103 37.1108L89.6239 36.2585C90.0501 35.2642 90.6183 34.4901 91.3285 33.9361C92.0458 33.375 92.8271 32.9844 93.6722 32.7642C94.5245 32.5369 95.3626 32.4233 96.1864 32.4233C96.712 32.4233 97.3157 32.4872 97.9975 32.6151C98.6864 32.7358 99.3505 32.9879 99.9897 33.3714C100.636 33.755 101.172 34.3338 101.598 35.108C102.025 35.8821 102.238 36.919 102.238 38.2188V49H99.7234V46.7841H99.5955C99.4251 47.1392 99.141 47.5192 98.7433 47.924C98.3455 48.3288 97.8164 48.6733 97.1559 48.9574C96.4954 49.2415 95.6893 49.3835 94.7376 49.3835ZM95.1211 47.125C96.1154 47.125 96.9535 46.9297 97.6353 46.5391C98.3242 46.1484 98.8427 45.6442 99.1907 45.0263C99.5458 44.4084 99.7234 43.7585 99.7234 43.0767V40.7756C99.6168 40.9034 99.3825 41.0206 99.0202 41.1271C98.6651 41.2266 98.2532 41.3153 97.7844 41.3935C97.3228 41.4645 96.8718 41.5284 96.4315 41.5852C95.9982 41.6349 95.6467 41.6776 95.3768 41.7131C94.7234 41.7983 94.1126 41.9368 93.5444 42.1286C92.9833 42.3132 92.5288 42.5937 92.1808 42.9702C91.8398 43.3395 91.6694 43.8437 91.6694 44.483C91.6694 45.3565 91.9925 46.017 92.6388 46.4645C93.2923 46.9048 94.1197 47.125 95.1211 47.125ZM113.474 49.3409C111.94 49.3409 110.619 48.9787 109.511 48.2543C108.403 47.5298 107.551 46.532 106.954 45.2607C106.358 43.9893 106.059 42.5369 106.059 40.9034C106.059 39.2415 106.365 37.7749 106.976 36.5036C107.594 35.2251 108.453 34.2273 109.554 33.5099C110.662 32.7855 111.954 32.4233 113.432 32.4233C114.582 32.4233 115.619 32.6364 116.542 33.0625C117.466 33.4886 118.222 34.0852 118.812 34.8523C119.401 35.6193 119.767 36.5142 119.909 37.5369H117.395C117.203 36.7912 116.777 36.1307 116.116 35.5554C115.463 34.973 114.582 34.6818 113.474 34.6818C112.494 34.6818 111.635 34.9375 110.896 35.4489C110.165 35.9531 109.593 36.6669 109.181 37.5902C108.776 38.5064 108.574 39.5824 108.574 40.8182C108.574 42.0824 108.773 43.1832 109.17 44.1207C109.575 45.0582 110.143 45.7862 110.875 46.3047C111.613 46.8232 112.48 47.0824 113.474 47.0824C114.128 47.0824 114.721 46.9688 115.253 46.7415C115.786 46.5142 116.237 46.1875 116.606 45.7614C116.976 45.3352 117.238 44.8239 117.395 44.2273H119.909C119.767 45.1932 119.415 46.0632 118.854 46.8374C118.3 47.6044 117.565 48.2152 116.649 48.6697C115.74 49.1172 114.682 49.3409 113.474 49.3409ZM112.281 48.9148H114.369L114.199 49.767C114.753 49.8523 115.26 50.0831 115.722 50.4595C116.184 50.843 116.415 51.4503 116.415 52.2812C116.415 53.1974 116.035 53.9432 115.275 54.5185C114.522 55.1009 113.41 55.392 111.94 55.392L111.855 53.7301C112.515 53.7301 113.062 53.6236 113.496 53.4105C113.936 53.2045 114.156 52.8565 114.156 52.3665C114.156 51.8764 113.975 51.5426 113.613 51.3651C113.251 51.1875 112.665 51.0668 111.855 51.0028L112.281 48.9148ZM130.232 49.3409C128.755 49.3409 127.459 48.9893 126.344 48.2862C125.236 47.5831 124.369 46.5994 123.744 45.3352C123.126 44.071 122.817 42.5937 122.817 40.9034C122.817 39.1989 123.126 37.7109 123.744 36.4396C124.369 35.1683 125.236 34.1811 126.344 33.478C127.459 32.7749 128.755 32.4233 130.232 32.4233C131.709 32.4233 133.002 32.7749 134.11 33.478C135.225 34.1811 136.091 35.1683 136.709 36.4396C137.334 37.7109 137.647 39.1989 137.647 40.9034C137.647 42.5937 137.334 44.071 136.709 45.3352C136.091 46.5994 135.225 47.5831 134.11 48.2862C133.002 48.9893 131.709 49.3409 130.232 49.3409ZM130.232 47.0824C131.354 47.0824 132.278 46.7947 133.002 46.2195C133.726 45.6442 134.263 44.8878 134.611 43.9503C134.959 43.0128 135.133 41.9972 135.133 40.9034C135.133 39.8097 134.959 38.7905 134.611 37.8459C134.263 36.9013 133.726 36.1378 133.002 35.5554C132.278 34.973 131.354 34.6818 130.232 34.6818C129.11 34.6818 128.187 34.973 127.462 35.5554C126.738 36.1378 126.202 36.9013 125.854 37.8459C125.506 38.7905 125.331 39.8097 125.331 40.9034C125.331 41.9972 125.506 43.0128 125.854 43.9503C126.202 44.8878 126.738 45.6442 127.462 46.2195C128.187 46.7947 129.11 47.0824 130.232 47.0824ZM126.951 30.6761L124.991 30.5909C124.991 29.5043 125.3 28.6165 125.917 27.9276C126.542 27.2315 127.313 26.8835 128.229 26.8835C128.634 26.8835 128.993 26.9545 129.305 27.0966C129.618 27.2315 129.916 27.3878 130.2 27.5653C130.484 27.7429 130.775 27.9027 131.074 28.0447C131.379 28.1797 131.724 28.2472 132.107 28.2472C132.512 28.2472 132.853 28.0909 133.13 27.7784C133.414 27.4588 133.556 27.0753 133.556 26.6278L135.474 26.7983C135.474 27.9062 135.161 28.7869 134.536 29.4403C133.918 30.0937 133.151 30.4205 132.235 30.4205C131.745 30.4205 131.34 30.353 131.02 30.218C130.701 30.076 130.417 29.9162 130.168 29.7386C129.92 29.5611 129.657 29.4048 129.38 29.2699C129.103 29.1278 128.762 29.0568 128.357 29.0568C127.952 29.0568 127.615 29.2166 127.345 29.5362C127.082 29.8487 126.951 30.2287 126.951 30.6761ZM148.346 49.3409C146.769 49.3409 145.409 48.9929 144.265 48.2969C143.129 47.5938 142.252 46.6136 141.634 45.3565C141.023 44.0923 140.718 42.6222 140.718 40.946C140.718 39.2699 141.023 37.7926 141.634 36.5142C142.252 35.2287 143.111 34.2273 144.212 33.5099C145.32 32.7855 146.613 32.4233 148.09 32.4233C148.942 32.4233 149.784 32.5653 150.615 32.8494C151.446 33.1335 152.202 33.5952 152.884 34.2344C153.566 34.8665 154.109 35.7045 154.514 36.7486C154.919 37.7926 155.121 39.0781 155.121 40.6051V41.6705H142.507V39.4972H152.564C152.564 38.5739 152.38 37.75 152.01 37.0256C151.648 36.3011 151.13 35.7294 150.455 35.3104C149.787 34.8913 148.999 34.6818 148.09 34.6818C147.088 34.6818 146.222 34.9304 145.49 35.4276C144.766 35.9176 144.208 36.5568 143.818 37.3452C143.427 38.1335 143.232 38.9787 143.232 39.8807V41.3295C143.232 42.5653 143.445 43.6129 143.871 44.4723C144.304 45.3246 144.904 45.9744 145.672 46.4219C146.439 46.8622 147.33 47.0824 148.346 47.0824C149.006 47.0824 149.603 46.9901 150.135 46.8054C150.675 46.6136 151.14 46.3295 151.531 45.9531C151.922 45.5696 152.223 45.0937 152.436 44.5256L154.865 45.2074C154.61 46.0312 154.18 46.7557 153.576 47.3807C152.973 47.9986 152.227 48.4815 151.339 48.8295C150.451 49.1705 149.453 49.3409 148.346 49.3409ZM170.537 36.3011L168.278 36.9403C168.136 36.5639 167.926 36.1982 167.65 35.843C167.38 35.4808 167.01 35.1825 166.542 34.9482C166.073 34.7138 165.473 34.5966 164.741 34.5966C163.74 34.5966 162.905 34.8274 162.238 35.2891C161.577 35.7436 161.247 36.3224 161.247 37.0256C161.247 37.6506 161.474 38.1442 161.929 38.5064C162.383 38.8686 163.093 39.1705 164.059 39.4119L166.488 40.0085C167.951 40.3636 169.042 40.907 169.759 41.6385C170.476 42.3629 170.835 43.2969 170.835 44.4403C170.835 45.3778 170.565 46.2159 170.025 46.9545C169.493 47.6932 168.747 48.2756 167.788 48.7017C166.829 49.1278 165.714 49.3409 164.443 49.3409C162.774 49.3409 161.392 48.9787 160.299 48.2543C159.205 47.5298 158.512 46.4716 158.221 45.0795L160.608 44.483C160.835 45.3636 161.265 46.0241 161.897 46.4645C162.536 46.9048 163.37 47.125 164.4 47.125C165.572 47.125 166.502 46.8764 167.191 46.3793C167.887 45.875 168.235 45.2713 168.235 44.5682C168.235 44 168.037 43.5241 167.639 43.1406C167.241 42.75 166.63 42.4588 165.806 42.267L163.079 41.6278C161.581 41.2727 160.48 40.7223 159.777 39.9766C159.081 39.2237 158.733 38.2827 158.733 37.1534C158.733 36.2301 158.992 35.4134 159.51 34.7031C160.036 33.9929 160.75 33.4354 161.652 33.0305C162.561 32.6257 163.591 32.4233 164.741 32.4233C166.36 32.4233 167.632 32.7784 168.555 33.4886C169.485 34.1989 170.146 35.1364 170.537 36.3011ZM176.452 49.1705C175.926 49.1705 175.475 48.9822 175.099 48.6058C174.722 48.2294 174.534 47.7784 174.534 47.2528C174.534 46.7273 174.722 46.2763 175.099 45.8999C175.475 45.5234 175.926 45.3352 176.452 45.3352C176.977 45.3352 177.428 45.5234 177.805 45.8999C178.181 46.2763 178.369 46.7273 178.369 47.2528C178.369 47.6009 178.281 47.9205 178.103 48.2116C177.933 48.5028 177.702 48.7372 177.411 48.9148C177.127 49.0852 176.807 49.1705 176.452 49.1705ZM176.452 37.0256C175.926 37.0256 175.475 36.8374 175.099 36.4609C174.722 36.0845 174.534 35.6335 174.534 35.108C174.534 34.5824 174.722 34.1314 175.099 33.755C175.475 33.3786 175.926 33.1903 176.452 33.1903C176.977 33.1903 177.428 33.3786 177.805 33.755C178.181 34.1314 178.369 34.5824 178.369 35.108C178.369 35.456 178.281 35.7756 178.103 36.0668C177.933 36.358 177.702 36.5923 177.411 36.7699C177.127 36.9403 176.807 37.0256 176.452 37.0256Z" fill="white"/>
</svg>
